<svg id="Capa_1" enable-background="new 0 0 497 497" height="512" viewBox="0 0 497 497" width="512" xmlns="http://www.w3.org/2000/svg"><g><path d="m457 109.5v328c0 22.09-17.91 40-40 40h-337c-22.09 0-40-17.91-40-40v-328z" fill="#f5f5f5"/><path d="m100 477.5h-20c-22.09 0-40-17.91-40-40v-328h20v328c0 22.09 17.91 40 40 40z" fill="#e6e6e6"/><path d="m457 127.5v130.33c-2.6.44-5.27.67-8 .67h-7c-13.26 0-25.26-5.37-33.94-14.06-8.69-8.68-14.06-20.68-14.06-33.94 0 13.26-5.37 25.26-14.06 33.94-8.68 8.69-20.68 14.06-33.94 14.06-26.51 0-48-21.49-48-48 0 26.51-21.49 48-48 48h-1c-13.26 0-25.26-5.37-33.94-14.06-8.69-8.68-14.06-20.68-14.06-33.94 0 26.51-21.49 48-48 48h-2c-13.26 0-25.26-5.37-33.94-14.06-8.69-8.68-14.06-20.68-14.06-33.94 0 26.51-21.49 48-48 48h-7c-2.73 0-5.4-.23-8-.67v-130.33z" fill="#e6e6e6"/><path d="m113.78 109.5-9.77 67.06c-.67 5.29-1.01 10.61-1.01 15.94 0 .84-.02 1.67-.06 2.5-1.3 25.35-22.27 45.5-47.94 45.5h-7c-13.26 0-25.26-5.37-33.94-14.06-8.14-8.13-13.37-19.17-14-31.44-.04-.83-.06-1.66-.06-2.5 0-5.27 1.16-10.47 3.41-15.24l36.59-67.76 33.628-10z" fill="#fd646f"/><path d="m201 109.5v83c0 .84-.02 1.67-.06 2.5-1.3 25.35-22.27 45.5-47.94 45.5h-2c-13.26 0-25.26-5.37-33.94-14.06-8.14-8.13-13.37-19.17-14-31.44-.04-.83-.06-1.66-.06-2.5 0-5.33.34-10.65 1.01-15.94l9.77-67.06 42.231-10z" fill="#ffc682"/><path d="m298 109.5v83c0 .84-.02 1.67-.06 2.5-1.3 25.35-22.27 45.5-47.94 45.5h-1c-25.67 0-46.64-20.15-47.94-45.5-.04-.83-.06-1.66-.06-2.5v-83l49.5-10z" fill="#fd646f"/><path d="m394 192.5c0 .84-.02 1.67-.06 2.5-.63 12.27-5.86 23.31-14 31.44-8.68 8.69-20.68 14.06-33.94 14.06-25.67 0-46.64-20.15-47.94-45.5-.04-.83-.06-1.66-.06-2.5v-83l44.5-10 41.72 10 8.87 67.05c.6 5.3.91 10.62.91 15.95z" fill="#ffc682"/><path d="m497 192.5c0 .84-.02 1.67-.06 2.5-1.3 25.35-22.27 45.5-47.94 45.5h-7c-13.26 0-25.26-5.37-33.94-14.06-8.14-8.13-13.37-19.17-14-31.44-.04-.83-.06-1.66-.06-2.5 0-5.33-.31-10.65-.91-15.95l-8.87-67.05 36.301-10 36.479 10 36.59 67.76c1.13 2.38 1.98 4.88 2.55 7.43.57 2.56.86 5.17.86 7.81z" fill="#fd646f"/><path d="m346.352 299.983c.445-2.205-.124-4.493-1.548-6.233-1.425-1.74-3.555-2.75-5.804-2.75h-169.053l-.253-1.194c-2.674-12.635-13.989-21.806-26.903-21.806h-12.791c-4.142 0-7.5 3.357-7.5 7.5s3.358 7.5 7.5 7.5h12.791c5.87 0 11.013 4.168 12.229 9.911l22.286 105.283c2.105 9.945 9.573 17.722 18.951 20.592-1.131 2.681-1.757 5.626-1.757 8.714 0 12.406 10.093 22.5 22.5 22.5s22.5-10.094 22.5-22.5c0-2.629-.458-5.153-1.29-7.5h33.58c-.833 2.347-1.29 4.871-1.29 7.5 0 12.406 10.093 22.5 22.5 22.5s22.5-10.094 22.5-22.5c0-2.629-.458-5.153-1.29-7.5h1.79c4.142 0 7.5-3.357 7.5-7.5s-3.358-7.5-7.5-7.5h-111.791c-5.87 0-11.013-4.168-12.229-9.911l-1.923-9.089h37.913c.007 0 .014.001.021.001.005 0 .01-.001.016-.001h47.987c.005 0 .01.001.016.001.007 0 .014-.001.021-.001h46.83c3.57 0 6.646-2.517 7.352-6.017l7.881-39.061c.204-.598.334-1.229.38-1.885zm-121.852 127.517c0 4.136-3.364 7.5-7.5 7.5s-7.5-3.364-7.5-7.5 3.364-7.5 7.5-7.5 7.5 3.364 7.5 7.5zm76 0c0 4.136-3.364 7.5-7.5 7.5s-7.5-3.364-7.5-7.5 3.364-7.5 7.5-7.5 7.5 3.364 7.5 7.5zm24.292-96.5h-35.296l3.125-25h37.215zm-90.171 40-3.125-25h41.009l-3.125 25zm-5-40-3.125-25h51.009l-3.125 25zm-18.242-25 3.125 25h-36.09l-5.292-25zm-29.79 40h34.79l3.125 25h-32.623zm102.907 25 3.125-25h34.145l-5.044 25z" fill="#50758d"/><path d="m.06 195h102.88c-1.3 25.35-22.27 45.5-47.94 45.5h-7c-13.26 0-25.26-5.37-33.94-14.06-8.14-8.13-13.37-19.17-14-31.44z" fill="#fc4755"/><path d="m103.06 195h97.88c-1.3 25.35-22.27 45.5-47.94 45.5h-2c-13.26 0-25.26-5.37-33.94-14.06-8.14-8.13-13.37-19.17-14-31.44z" fill="#ffac5c"/><path d="m201.06 195h96.88c-1.3 25.35-22.27 45.5-47.94 45.5h-1c-25.67 0-46.64-20.15-47.94-45.5z" fill="#fc4755"/><path d="m298.06 195h95.88c-.63 12.27-5.86 23.31-14 31.44-8.68 8.69-20.68 14.06-33.94 14.06-25.67 0-46.64-20.15-47.94-45.5z" fill="#ffac5c"/><path d="m496.94 195c-1.3 25.35-22.27 45.5-47.94 45.5h-7c-13.26 0-25.26-5.37-33.94-14.06-8.14-8.13-13.37-19.17-14-31.44z" fill="#fc4755"/><path d="m40 109.5v-50c0-22.091 17.909-40 40-40h337c22.091 0 40 17.909 40 40v50z" fill="#50758d"/><g fill="#2b597f"><path d="m102.85 78.848c3.362-3.933 5.4-9.031 5.4-14.598 0-12.406-10.093-22.5-22.5-22.5-6.996 0-13.256 3.21-17.386 8.235-1.906 2.222-3.811 4.444-5.715 6.667-3.362 3.933-5.399 9.03-5.399 14.598 0 12.406 10.093 22.5 22.5 22.5 6.997 0 13.257-3.211 17.387-8.236.095-.111 3.905-4.554 5.713-6.666z"/><path d="m162.1 79.098c3.362-3.933 5.4-9.031 5.4-14.598 0-12.406-10.093-22.5-22.5-22.5-6.996 0-13.256 3.21-17.386 8.235-1.906 2.222-3.811 4.444-5.715 6.667-3.362 3.933-5.399 9.03-5.399 14.598 0 12.406 10.093 22.5 22.5 22.5 6.997 0 13.257-3.211 17.387-8.236.095-.111 3.905-4.554 5.713-6.666z"/><path d="m221.1 79.098c3.362-3.933 5.4-9.031 5.4-14.598 0-12.406-10.093-22.5-22.5-22.5-6.996 0-13.256 3.21-17.386 8.235-1.906 2.222-3.811 4.444-5.715 6.667-3.362 3.933-5.399 9.03-5.399 14.598 0 12.406 10.093 22.5 22.5 22.5 6.997 0 13.257-3.211 17.387-8.236.095-.111 3.905-4.554 5.713-6.666z"/></g><path d="m85.75 86.75c-12.407 0-22.5-10.094-22.5-22.5s10.093-22.5 22.5-22.5 22.5 10.094 22.5 22.5-10.093 22.5-22.5 22.5z" fill="#fd646f"/><path d="m145 87c-12.407 0-22.5-10.094-22.5-22.5s10.093-22.5 22.5-22.5 22.5 10.094 22.5 22.5-10.093 22.5-22.5 22.5z" fill="#ffc682"/><path d="m204 87c-12.407 0-22.5-10.094-22.5-22.5s10.093-22.5 22.5-22.5 22.5 10.094 22.5 22.5-10.093 22.5-22.5 22.5z" fill="#93ddb7"/><path d="m429.1 79.098c3.362-3.933 5.4-9.031 5.4-14.598 0-12.406-10.093-22.5-22.5-22.5h-133c-6.996 0-13.256 3.21-17.386 8.235-1.906 2.222-3.811 4.444-5.715 6.667-3.362 3.933-5.399 9.03-5.399 14.598 0 12.406 10.093 22.5 22.5 22.5h133c6.997 0 13.257-3.211 17.387-8.236.095-.111 3.905-4.554 5.713-6.666z" fill="#2b597f"/><path d="m412 87h-133c-12.407 0-22.5-10.094-22.5-22.5s10.093-22.5 22.5-22.5h133c12.407 0 22.5 10.094 22.5 22.5s-10.093 22.5-22.5 22.5z" fill="#f5f5f5"/><path d="m145 87c-12.407 0-22.5-10.094-22.5-22.5s10.093-22.5 22.5-22.5 22.5 10.094 22.5 22.5-10.093 22.5-22.5 22.5z" fill="#ffc682"/><path d="m204 87c-12.407 0-22.5-10.094-22.5-22.5s10.093-22.5 22.5-22.5 22.5 10.094 22.5 22.5-10.093 22.5-22.5 22.5z" fill="#93ddb7"/></g></svg>