<svg id="Capa_1" enable-background="new 0 0 512.007 512.007" height="512" viewBox="0 0 512.007 512.007" width="512" xmlns="http://www.w3.org/2000/svg"><g><path d="m464.507 117.003v328c0 22.09-17.91 40-40 40h-337c-22.09 0-40-17.91-40-40v-328z" fill="#f5f5f5"/><path d="m107.507 485.003h-20c-22.09 0-40-17.91-40-40v-328h20v328c0 22.09 17.91 40 40 40z" fill="#e6e6e6"/><path d="m464.507 135.003v130.33c-2.6.44-5.27.67-8 .67h-7c-13.26 0-25.26-5.37-33.94-14.06-8.69-8.68-14.06-20.68-14.06-33.94 0 13.26-5.37 25.26-14.06 33.94-8.68 8.69-20.68 14.06-33.94 14.06-26.51 0-48-21.49-48-48 0 26.51-21.49 48-48 48h-1c-13.26 0-25.26-5.37-33.94-14.06-8.69-8.68-14.06-20.68-14.06-33.94 0 26.51-21.49 48-48 48h-2c-13.26 0-25.26-5.37-33.94-14.06-8.69-8.68-14.06-20.68-14.06-33.94 0 26.51-21.49 48-48 48h-7c-2.73 0-5.4-.23-8-.67v-130.33z" fill="#e6e6e6"/><path d="m121.287 117.003-9.77 67.06c-.67 5.29-1.01 10.61-1.01 15.94 0 .84-.02 1.67-.06 2.5-1.3 25.35-22.27 45.5-47.94 45.5h-7c-13.26 0-25.26-5.37-33.94-14.06-8.14-8.13-13.37-19.17-14-31.44-.04-.83-.06-1.66-.06-2.5 0-5.27 1.16-10.47 3.41-15.24l36.59-67.76 33.628-10z" fill="#fd646f"/><path d="m208.507 117.003v83c0 .84-.02 1.67-.06 2.5-1.3 25.35-22.27 45.5-47.94 45.5h-2c-13.26 0-25.26-5.37-33.94-14.06-8.14-8.13-13.37-19.17-14-31.44-.04-.83-.06-1.66-.06-2.5 0-5.33.34-10.65 1.01-15.94l9.77-67.06 42.231-10z" fill="#ffc682"/><path d="m305.507 117.003v83c0 .84-.02 1.67-.06 2.5-1.3 25.35-22.27 45.5-47.94 45.5h-1c-25.67 0-46.64-20.15-47.94-45.5-.04-.83-.06-1.66-.06-2.5v-83l49.5-10z" fill="#fd646f"/><path d="m401.507 200.003c0 .84-.02 1.67-.06 2.5-.63 12.27-5.86 23.31-14 31.44-8.68 8.69-20.68 14.06-33.94 14.06-25.67 0-46.64-20.15-47.94-45.5-.04-.83-.06-1.66-.06-2.5v-83l44.5-10 41.72 10 8.87 67.05c.6 5.3.91 10.62.91 15.95z" fill="#ffc682"/><path d="m504.507 200.003c0 .84-.02 1.67-.06 2.5-1.3 25.35-22.27 45.5-47.94 45.5h-7c-13.26 0-25.26-5.37-33.94-14.06-8.14-8.13-13.37-19.17-14-31.44-.04-.83-.06-1.66-.06-2.5 0-5.33-.31-10.65-.91-15.95l-8.87-67.05 36.301-10 36.479 10 36.59 67.76c1.13 2.38 1.98 4.88 2.55 7.43.57 2.56.86 5.17.86 7.81z" fill="#fd646f"/><path d="m353.859 307.487c.445-2.205-.124-4.493-1.548-6.233-1.425-1.74-3.555-2.75-5.804-2.75h-169.053l-.253-1.194c-2.674-12.635-13.989-21.806-26.904-21.806h-12.791c-4.142 0-7.5 3.357-7.5 7.5s3.358 7.5 7.5 7.5h12.791c5.87 0 11.013 4.168 12.229 9.911l22.286 105.283c2.105 9.945 9.573 17.722 18.951 20.592-1.131 2.681-1.757 5.626-1.757 8.714 0 12.406 10.093 22.5 22.5 22.5s22.5-10.094 22.5-22.5c0-2.629-.458-5.153-1.29-7.5h33.58c-.833 2.347-1.29 4.871-1.29 7.5 0 12.406 10.093 22.5 22.5 22.5s22.5-10.094 22.5-22.5c0-2.629-.458-5.153-1.29-7.5h1.79c4.142 0 7.5-3.357 7.5-7.5s-3.358-7.5-7.5-7.5h-111.79c-5.87 0-11.013-4.168-12.229-9.911l-1.924-9.089h37.913c.007 0 .014.001.021.001.005 0 .01-.001.016-.001h47.987c.005 0 .01.001.016.001.007 0 .014-.001.021-.001h46.83c3.57 0 6.646-2.517 7.352-6.017l7.881-39.061c.204-.598.334-1.229.38-1.885zm-121.852 127.516c0 4.136-3.364 7.5-7.5 7.5s-7.5-3.364-7.5-7.5 3.364-7.5 7.5-7.5 7.5 3.365 7.5 7.5zm76 0c0 4.136-3.364 7.5-7.5 7.5s-7.5-3.364-7.5-7.5 3.364-7.5 7.5-7.5 7.5 3.365 7.5 7.5zm24.292-96.5h-35.296l3.125-25h37.215zm-90.172 40-3.125-25h41.009l-3.125 25zm-5-40-3.125-25h51.009l-3.125 25zm-18.241-25 3.125 25h-36.09l-5.292-25zm-29.79 40h34.79l3.125 25h-32.623zm102.906 25 3.125-25h34.145l-5.044 25z" fill="#50758d"/><path d="m7.567 202.503h102.88c-1.3 25.35-22.27 45.5-47.94 45.5h-7c-13.26 0-25.26-5.37-33.94-14.06-8.14-8.13-13.37-19.17-14-31.44z" fill="#fc4755"/><path d="m110.567 202.503h97.88c-1.3 25.35-22.27 45.5-47.94 45.5h-2c-13.26 0-25.26-5.37-33.94-14.06-8.14-8.13-13.37-19.17-14-31.44z" fill="#ffac5c"/><path d="m208.567 202.503h96.88c-1.3 25.35-22.27 45.5-47.94 45.5h-1c-25.67 0-46.64-20.15-47.94-45.5z" fill="#fc4755"/><path d="m305.567 202.503h95.88c-.63 12.27-5.86 23.31-14 31.44-8.68 8.69-20.68 14.06-33.94 14.06-25.67 0-46.64-20.15-47.94-45.5z" fill="#ffac5c"/><path d="m504.447 202.503c-1.3 25.35-22.27 45.5-47.94 45.5h-7c-13.26 0-25.26-5.37-33.94-14.06-8.14-8.13-13.37-19.17-14-31.44z" fill="#fc4755"/><path d="m47.507 117.003v-50c0-22.091 17.909-40 40-40h337c22.091 0 40 17.909 40 40v50z" fill="#50758d"/><g fill="#2b597f"><path d="m110.357 86.352c3.362-3.933 5.4-9.031 5.4-14.598 0-12.406-10.093-22.5-22.5-22.5-6.996 0-13.256 3.21-17.386 8.235-1.906 2.222-3.811 4.444-5.715 6.667-3.362 3.933-5.399 9.03-5.399 14.598 0 12.406 10.093 22.5 22.5 22.5 6.997 0 13.257-3.211 17.387-8.236.094-.111 3.905-4.554 5.713-6.666z"/><path d="m169.607 86.602c3.362-3.933 5.4-9.031 5.4-14.598 0-12.406-10.093-22.5-22.5-22.5-6.996 0-13.256 3.21-17.386 8.235-1.906 2.222-3.811 4.444-5.715 6.667-3.362 3.933-5.399 9.03-5.399 14.598 0 12.406 10.093 22.5 22.5 22.5 6.997 0 13.257-3.211 17.387-8.236.094-.111 3.905-4.554 5.713-6.666z"/><path d="m228.607 86.602c3.362-3.933 5.4-9.031 5.4-14.598 0-12.406-10.093-22.5-22.5-22.5-6.996 0-13.256 3.21-17.386 8.235-1.906 2.222-3.811 4.444-5.715 6.667-3.362 3.933-5.399 9.03-5.399 14.598 0 12.406 10.093 22.5 22.5 22.5 6.997 0 13.257-3.211 17.387-8.236.094-.111 3.905-4.554 5.713-6.666z"/></g><path d="m93.257 94.253c-12.407 0-22.5-10.094-22.5-22.5s10.093-22.5 22.5-22.5 22.5 10.094 22.5 22.5-10.094 22.5-22.5 22.5z" fill="#fd646f"/><path d="m152.507 94.503c-12.407 0-22.5-10.094-22.5-22.5s10.093-22.5 22.5-22.5 22.5 10.094 22.5 22.5-10.094 22.5-22.5 22.5z" fill="#ffc682"/><path d="m211.507 94.503c-12.407 0-22.5-10.094-22.5-22.5s10.093-22.5 22.5-22.5 22.5 10.094 22.5 22.5-10.094 22.5-22.5 22.5z" fill="#93ddb7"/><path d="m436.607 86.602c3.362-3.933 5.4-9.031 5.4-14.598 0-12.406-10.093-22.5-22.5-22.5h-133c-6.996 0-13.256 3.21-17.386 8.235-1.906 2.222-3.811 4.444-5.715 6.667-3.362 3.933-5.399 9.03-5.399 14.598 0 12.406 10.093 22.5 22.5 22.5h133c6.997 0 13.257-3.211 17.387-8.236.094-.111 3.905-4.554 5.713-6.666z" fill="#2b597f"/><path d="m419.507 94.503h-133c-12.407 0-22.5-10.094-22.5-22.5s10.093-22.5 22.5-22.5h133c12.407 0 22.5 10.094 22.5 22.5s-10.094 22.5-22.5 22.5z" fill="#f5f5f5"/><path d="m152.507 94.503c-12.407 0-22.5-10.094-22.5-22.5s10.093-22.5 22.5-22.5 22.5 10.094 22.5 22.5-10.094 22.5-22.5 22.5z" fill="#ffc682"/><path d="m211.507 94.503c-12.407 0-22.5-10.094-22.5-22.5s10.093-22.5 22.5-22.5 22.5 10.094 22.5 22.5-10.094 22.5-22.5 22.5z" fill="#93ddb7"/></g><g><path d="m70.757 71.753c0 12.406 10.093 22.5 22.5 22.5s22.5-10.094 22.5-22.5-10.093-22.5-22.5-22.5-22.5 10.094-22.5 22.5zm30 0c0 4.136-3.364 7.5-7.5 7.5s-7.5-3.364-7.5-7.5 3.364-7.5 7.5-7.5 7.5 3.365 7.5 7.5z"/><path d="m130.007 72.003c0 12.406 10.093 22.5 22.5 22.5s22.5-10.094 22.5-22.5-10.093-22.5-22.5-22.5-22.5 10.094-22.5 22.5zm30 0c0 4.136-3.364 7.5-7.5 7.5s-7.5-3.364-7.5-7.5 3.364-7.5 7.5-7.5 7.5 3.365 7.5 7.5z"/><path d="m189.007 72.003c0 12.406 10.093 22.5 22.5 22.5s22.5-10.094 22.5-22.5-10.093-22.5-22.5-22.5-22.5 10.094-22.5 22.5zm30 0c0 4.136-3.364 7.5-7.5 7.5s-7.5-3.364-7.5-7.5 3.364-7.5 7.5-7.5 7.5 3.365 7.5 7.5z"/><path d="m264.007 72.003c0 12.406 10.093 22.5 22.5 22.5h133c12.407 0 22.5-10.094 22.5-22.5s-10.093-22.5-22.5-22.5h-133c-12.407 0-22.5 10.094-22.5 22.5zm163 0c0 4.136-3.364 7.5-7.5 7.5h-133c-4.136 0-7.5-3.364-7.5-7.5s3.364-7.5 7.5-7.5h133c4.135 0 7.5 3.365 7.5 7.5z"/><path d="m512.007 200.003c0-6.331-1.425-12.704-4.12-18.432-.059-.125-.121-.249-.187-.37l-35.693-66.094v-48.104c0-26.191-21.309-47.5-47.5-47.5h-51.5c-4.142 0-7.5 3.357-7.5 7.5s3.358 7.5 7.5 7.5h51.5c17.92 0 32.5 14.579 32.5 32.5v42.5h-402v-42.5c0-17.921 14.58-32.5 32.5-32.5h250.5c4.142 0 7.5-3.357 7.5-7.5s-3.358-7.5-7.5-7.5h-250.5c-26.191 0-47.5 21.309-47.5 47.5v48.105l-15.868 29.384c-1.968 3.645-.609 8.194 3.035 10.163 1.133.611 2.354.901 3.557.901 2.667 0 5.25-1.426 6.606-3.938l14.643-27.115h60.634l-8.523 58.481c-.007.046-.013.093-.019.139-.708 5.577-1.066 11.256-1.066 16.88 0 22.332-18.168 40.5-40.5 40.5-24.572 2.787-47.691-15.042-47.5-40.5-.234-6.117 2.564-12.357 5.653-17.504 1.968-3.645.609-8.194-3.035-10.163-3.644-1.965-8.194-.608-10.163 3.036-4.451 7.348-7.628 15.956-7.455 24.631 0 25.223 16.919 46.555 40 53.281v191.719c0 26.191 21.309 47.5 47.5 47.5h337c26.191 0 47.5-21.309 47.5-47.5v-31.5c0-4.143-3.358-7.5-7.5-7.5s-7.5 3.357-7.5 7.5v31.5c0 17.921-14.58 32.5-32.5 32.5h-337c-17.92 0-32.5-14.579-32.5-32.5v-189.512c.167.001 7.5.013 7.5.013 20.48 0 38.391-11.159 48.009-27.708 6.384 11.009 16.481 19.788 28.911 24.339 3.788 1.417 8.202-.536 9.622-4.465 1.424-3.89-.575-8.197-4.464-9.621-15.897-5.82-26.578-21.109-26.578-38.046-.002-4.994.34-9.993.942-14.95l8.824-60.55h73.234v75.5c0 16.937-10.681 32.226-26.578 38.046-3.89 1.424-5.888 5.731-4.464 9.621 1.419 3.928 5.834 5.882 9.622 4.465 12.431-4.551 22.527-13.331 28.911-24.339 9.617 16.549 27.529 27.708 48.009 27.708h1c20.474 0 38.38-11.152 48-27.692 9.62 16.54 27.526 27.692 48 27.692s38.38-11.152 48-27.692c9.62 16.54 27.526 27.692 48 27.692 0 0 7.333-.011 7.5-.013v123.013c0 4.143 3.358 7.5 7.5 7.5s7.5-3.357 7.5-7.5v-125.219c23.082-6.726 40.001-28.059 40.001-53.282zm-254.5 40.5h-1c-22.332 0-40.5-18.168-40.5-40.5v-75.5h82v75.5c0 22.332-18.169 40.5-40.5 40.5zm96 0c-22.332 0-40.5-18.168-40.5-40.5v-75.5h72.147l7.993 60.455c.551 4.993.862 10.022.861 15.045-.001 22.332-18.17 40.5-40.501 40.5zm111.084-.812c-4.457.856-10.474.91-15.084.812-22.332 0-40.5-18.168-40.5-40.5 0-5.596-.324-11.249-.964-16.805-.005-.042-.01-.084-.016-.126l-7.744-58.569h59.75l34.363 63.632c1.708 3.697 2.61 7.796 2.61 11.868.001 19.565-13.943 35.932-32.415 39.688z"/><path d="m235.497 393.504c.005 0 .01-.001.016-.001h47.987c.005 0 .01.001.016.001.007 0 .014-.001.021-.001h46.83c3.57 0 6.646-2.517 7.352-6.017l16.14-80c1.02-4.485-2.755-9.096-7.352-8.983h-169.053c-2.228-13.146-13.796-23.031-27.157-23h-12.791c-4.142 0-7.5 3.357-7.5 7.5s3.358 7.5 7.5 7.5h12.791c5.87 0 11.013 4.168 12.229 9.911l22.286 105.283c2.105 9.945 9.573 17.722 18.951 20.592-1.131 2.681-1.757 5.626-1.757 8.714 0 12.406 10.093 22.5 22.5 22.5s22.5-10.094 22.5-22.5c0-2.629-.458-5.153-1.29-7.5h33.58c-.833 2.347-1.29 4.871-1.29 7.5 0 12.406 10.093 22.5 22.5 22.5s22.5-10.094 22.5-22.5c0-2.629-.458-5.153-1.29-7.5h1.79c4.142 0 7.5-3.357 7.5-7.5s-3.358-7.5-7.5-7.5h-111.79c-5.87 0-11.013-4.168-12.229-9.911l-1.924-9.089h37.913c.007 0 .014.001.021.001zm-3.49 41.499c0 4.136-3.364 7.5-7.5 7.5s-7.5-3.364-7.5-7.5 3.364-7.5 7.5-7.5 7.5 3.365 7.5 7.5zm76 0c0 4.136-3.364 7.5-7.5 7.5s-7.5-3.364-7.5-7.5 3.364-7.5 7.5-7.5 7.5 3.365 7.5 7.5zm-27.996-81.5-3.125 25h-34.759l-3.125-25zm-42.884-15-3.125-25h51.009l-3.125 25zm54.875 40 3.125-25h34.145l-5.044 25zm40.297-40h-35.296l3.125-25h37.215zm-113.413-25 3.125 25h-36.09l-5.292-25zm-29.79 40h34.79l3.125 25h-32.623z"/></g></svg>